M48
; DRILL file KiCad 10.0.2 date 2026-05-10T18:03:20
; FORMAT={-:-/ absolute / metric / decimal}
; #@! TF.CreationDate,2026-05-10T18:03:20+01:00
; #@! TF.GenerationSoftware,Kicad,Pcbnew,10.0.2
; #@! TF.FileFunction,Plated,1,2,PTH
FMAT,2
METRIC
; #@! TA.AperFunction,Plated,PTH,ViaDrill
T1C0.300
; #@! TA.AperFunction,Plated,PTH,ComponentDrill
T2C0.600
; #@! TA.AperFunction,Plated,PTH,ComponentDrill
T3C0.650
; #@! TA.AperFunction,Plated,PTH,ComponentDrill
T4C0.800
; #@! TA.AperFunction,Plated,PTH,ComponentDrill
T5C0.900
; #@! TA.AperFunction,Plated,PTH,ComponentDrill
T6C0.900
%
G90
G05
T1
X88.755Y-64.2
X88.755Y-78.85
X90.5Y-76.3
X90.75Y-69.25
X91.55Y-63.15
X93.265Y-72.732
X93.3Y-71.7
X93.55Y-73.5
X93.852Y-72.35
X94.0Y-87.85
X94.2Y-85.0
X95.125Y-71.625
X95.2Y-70.85
X95.3Y-84.707
X96.45Y-62.65
X97.75Y-62.65
X98.05Y-78.55
X99.0Y-62.55
X99.1Y-73.3
X99.65Y-69.8
X101.75Y-78.45
X102.95Y-80.4
X103.55Y-60.05
X104.225Y-88.875
X105.0Y-74.0
X106.05Y-76.9
X106.35Y-63.5
X107.4Y-78.45
X107.8Y-75.1
X108.075Y-64.25
X108.1Y-71.0
X109.75Y-59.625
X110.75Y-72.175
X112.675Y-67.775
X112.85Y-71.25
X113.425Y-84.275
X113.775Y-74.65
X114.275Y-80.161
X114.3Y-81.0
X115.1Y-80.85
X115.525Y-70.5
X115.675Y-84.3
X115.725Y-65.6
X115.825Y-68.75
X116.1Y-53.95
X116.1Y-80.4
X116.35Y-64.775
X116.65Y-65.6
X116.925Y-55.175
X117.007Y-80.674
X117.3Y-81.31
X117.6Y-83.125
X117.65Y-81.95
X119.35Y-56.875
X119.45Y-67.325
X120.525Y-68.2
X120.6Y-66.825
X121.125Y-65.925
X121.375Y-60.35
X121.375Y-74.9
X121.655Y-73.205
X122.637Y-75.337
X122.95Y-77.775
X122.975Y-60.075
X124.225Y-58.275
X125.075Y-55.1
T3
X90.347Y-82.6
X90.347Y-88.39
T4
X115.2Y-74.175
X115.2Y-75.375
X115.2Y-76.575
X116.4Y-74.175
X116.4Y-75.375
X116.4Y-76.575
X117.6Y-74.175
X117.6Y-75.375
X117.6Y-76.575
T5
X107.125Y-54.237
X113.925Y-54.237
T6
X123.3Y-53.4
X125.3Y-53.4
T2
G00X87.067Y-81.18
M15
G01X86.268Y-81.18
M16
G05
G00X87.067Y-89.82
M15
G01X86.268Y-89.82
M16
G05
G00X91.397Y-81.18
M15
G01X90.298Y-81.18
M16
G05
G00X91.397Y-89.82
M15
G01X90.298Y-89.82
M16
G05
M30
