%TF.GenerationSoftware,KiCad,Pcbnew,10.0.2*%
%TF.CreationDate,2026-05-10T18:03:25+01:00*%
%TF.ProjectId,eink_badge,65696e6b-5f62-4616-9467-652e6b696361,rev?*%
%TF.SameCoordinates,Original*%
%TF.FileFunction,Legend,Top*%
%TF.FilePolarity,Positive*%
%FSLAX46Y46*%
G04 Gerber Fmt 4.6, Leading zero omitted, Abs format (unit mm)*
G04 Created by KiCad (PCBNEW 10.0.2) date 2026-05-10 18:03:25*
%MOMM*%
%LPD*%
G01*
G04 APERTURE LIST*
%ADD10C,0.100000*%
%ADD11C,0.150000*%
%ADD12C,0.060000*%
%ADD13C,0.120000*%
%ADD14C,0.200000*%
%ADD15C,0.250000*%
%ADD16C,0.000000*%
G04 APERTURE END LIST*
D10*
X136355074Y-64472419D02*
X135878884Y-64472419D01*
X135878884Y-64472419D02*
X135831265Y-64948609D01*
X135831265Y-64948609D02*
X135878884Y-64900990D01*
X135878884Y-64900990D02*
X135974122Y-64853371D01*
X135974122Y-64853371D02*
X136212217Y-64853371D01*
X136212217Y-64853371D02*
X136307455Y-64900990D01*
X136307455Y-64900990D02*
X136355074Y-64948609D01*
X136355074Y-64948609D02*
X136402693Y-65043847D01*
X136402693Y-65043847D02*
X136402693Y-65281942D01*
X136402693Y-65281942D02*
X136355074Y-65377180D01*
X136355074Y-65377180D02*
X136307455Y-65424800D01*
X136307455Y-65424800D02*
X136212217Y-65472419D01*
X136212217Y-65472419D02*
X135974122Y-65472419D01*
X135974122Y-65472419D02*
X135878884Y-65424800D01*
X135878884Y-65424800D02*
X135831265Y-65377180D01*
X137021741Y-64472419D02*
X137116979Y-64472419D01*
X137116979Y-64472419D02*
X137212217Y-64520038D01*
X137212217Y-64520038D02*
X137259836Y-64567657D01*
X137259836Y-64567657D02*
X137307455Y-64662895D01*
X137307455Y-64662895D02*
X137355074Y-64853371D01*
X137355074Y-64853371D02*
X137355074Y-65091466D01*
X137355074Y-65091466D02*
X137307455Y-65281942D01*
X137307455Y-65281942D02*
X137259836Y-65377180D01*
X137259836Y-65377180D02*
X137212217Y-65424800D01*
X137212217Y-65424800D02*
X137116979Y-65472419D01*
X137116979Y-65472419D02*
X137021741Y-65472419D01*
X137021741Y-65472419D02*
X136926503Y-65424800D01*
X136926503Y-65424800D02*
X136878884Y-65377180D01*
X136878884Y-65377180D02*
X136831265Y-65281942D01*
X136831265Y-65281942D02*
X136783646Y-65091466D01*
X136783646Y-65091466D02*
X136783646Y-64853371D01*
X136783646Y-64853371D02*
X136831265Y-64662895D01*
X136831265Y-64662895D02*
X136878884Y-64567657D01*
X136878884Y-64567657D02*
X136926503Y-64520038D01*
X136926503Y-64520038D02*
X137021741Y-64472419D01*
X137974122Y-64472419D02*
X138069360Y-64472419D01*
X138069360Y-64472419D02*
X138164598Y-64520038D01*
X138164598Y-64520038D02*
X138212217Y-64567657D01*
X138212217Y-64567657D02*
X138259836Y-64662895D01*
X138259836Y-64662895D02*
X138307455Y-64853371D01*
X138307455Y-64853371D02*
X138307455Y-65091466D01*
X138307455Y-65091466D02*
X138259836Y-65281942D01*
X138259836Y-65281942D02*
X138212217Y-65377180D01*
X138212217Y-65377180D02*
X138164598Y-65424800D01*
X138164598Y-65424800D02*
X138069360Y-65472419D01*
X138069360Y-65472419D02*
X137974122Y-65472419D01*
X137974122Y-65472419D02*
X137878884Y-65424800D01*
X137878884Y-65424800D02*
X137831265Y-65377180D01*
X137831265Y-65377180D02*
X137783646Y-65281942D01*
X137783646Y-65281942D02*
X137736027Y-65091466D01*
X137736027Y-65091466D02*
X137736027Y-64853371D01*
X137736027Y-64853371D02*
X137783646Y-64662895D01*
X137783646Y-64662895D02*
X137831265Y-64567657D01*
X137831265Y-64567657D02*
X137878884Y-64520038D01*
X137878884Y-64520038D02*
X137974122Y-64472419D01*
X138736027Y-65472419D02*
X138736027Y-64805752D01*
X138736027Y-64900990D02*
X138783646Y-64853371D01*
X138783646Y-64853371D02*
X138878884Y-64805752D01*
X138878884Y-64805752D02*
X139021741Y-64805752D01*
X139021741Y-64805752D02*
X139116979Y-64853371D01*
X139116979Y-64853371D02*
X139164598Y-64948609D01*
X139164598Y-64948609D02*
X139164598Y-65472419D01*
X139164598Y-64948609D02*
X139212217Y-64853371D01*
X139212217Y-64853371D02*
X139307455Y-64805752D01*
X139307455Y-64805752D02*
X139450312Y-64805752D01*
X139450312Y-64805752D02*
X139545551Y-64853371D01*
X139545551Y-64853371D02*
X139593170Y-64948609D01*
X139593170Y-64948609D02*
X139593170Y-65472419D01*
X140021741Y-65186704D02*
X140497931Y-65186704D01*
X139926503Y-65472419D02*
X140259836Y-64472419D01*
X140259836Y-64472419D02*
X140593169Y-65472419D01*
X140926503Y-65472419D02*
X140926503Y-64472419D01*
X141355074Y-65472419D02*
X141355074Y-64948609D01*
X141355074Y-64948609D02*
X141307455Y-64853371D01*
X141307455Y-64853371D02*
X141212217Y-64805752D01*
X141212217Y-64805752D02*
X141069360Y-64805752D01*
X141069360Y-64805752D02*
X140974122Y-64853371D01*
X140974122Y-64853371D02*
X140926503Y-64900990D01*
X142926503Y-64948609D02*
X143069360Y-64996228D01*
X143069360Y-64996228D02*
X143116979Y-65043847D01*
X143116979Y-65043847D02*
X143164598Y-65139085D01*
X143164598Y-65139085D02*
X143164598Y-65281942D01*
X143164598Y-65281942D02*
X143116979Y-65377180D01*
X143116979Y-65377180D02*
X143069360Y-65424800D01*
X143069360Y-65424800D02*
X142974122Y-65472419D01*
X142974122Y-65472419D02*
X142593170Y-65472419D01*
X142593170Y-65472419D02*
X142593170Y-64472419D01*
X142593170Y-64472419D02*
X142926503Y-64472419D01*
X142926503Y-64472419D02*
X143021741Y-64520038D01*
X143021741Y-64520038D02*
X143069360Y-64567657D01*
X143069360Y-64567657D02*
X143116979Y-64662895D01*
X143116979Y-64662895D02*
X143116979Y-64758133D01*
X143116979Y-64758133D02*
X143069360Y-64853371D01*
X143069360Y-64853371D02*
X143021741Y-64900990D01*
X143021741Y-64900990D02*
X142926503Y-64948609D01*
X142926503Y-64948609D02*
X142593170Y-64948609D01*
X144021741Y-65472419D02*
X144021741Y-64948609D01*
X144021741Y-64948609D02*
X143974122Y-64853371D01*
X143974122Y-64853371D02*
X143878884Y-64805752D01*
X143878884Y-64805752D02*
X143688408Y-64805752D01*
X143688408Y-64805752D02*
X143593170Y-64853371D01*
X144021741Y-65424800D02*
X143926503Y-65472419D01*
X143926503Y-65472419D02*
X143688408Y-65472419D01*
X143688408Y-65472419D02*
X143593170Y-65424800D01*
X143593170Y-65424800D02*
X143545551Y-65329561D01*
X143545551Y-65329561D02*
X143545551Y-65234323D01*
X143545551Y-65234323D02*
X143593170Y-65139085D01*
X143593170Y-65139085D02*
X143688408Y-65091466D01*
X143688408Y-65091466D02*
X143926503Y-65091466D01*
X143926503Y-65091466D02*
X144021741Y-65043847D01*
X144355075Y-64805752D02*
X144736027Y-64805752D01*
X144497932Y-64472419D02*
X144497932Y-65329561D01*
X144497932Y-65329561D02*
X144545551Y-65424800D01*
X144545551Y-65424800D02*
X144640789Y-65472419D01*
X144640789Y-65472419D02*
X144736027Y-65472419D01*
X144926504Y-64805752D02*
X145307456Y-64805752D01*
X145069361Y-64472419D02*
X145069361Y-65329561D01*
X145069361Y-65329561D02*
X145116980Y-65424800D01*
X145116980Y-65424800D02*
X145212218Y-65472419D01*
X145212218Y-65472419D02*
X145307456Y-65472419D01*
X146021742Y-65424800D02*
X145926504Y-65472419D01*
X145926504Y-65472419D02*
X145736028Y-65472419D01*
X145736028Y-65472419D02*
X145640790Y-65424800D01*
X145640790Y-65424800D02*
X145593171Y-65329561D01*
X145593171Y-65329561D02*
X145593171Y-64948609D01*
X145593171Y-64948609D02*
X145640790Y-64853371D01*
X145640790Y-64853371D02*
X145736028Y-64805752D01*
X145736028Y-64805752D02*
X145926504Y-64805752D01*
X145926504Y-64805752D02*
X146021742Y-64853371D01*
X146021742Y-64853371D02*
X146069361Y-64948609D01*
X146069361Y-64948609D02*
X146069361Y-65043847D01*
X146069361Y-65043847D02*
X145593171Y-65139085D01*
X146497933Y-65472419D02*
X146497933Y-64805752D01*
X146497933Y-64996228D02*
X146545552Y-64900990D01*
X146545552Y-64900990D02*
X146593171Y-64853371D01*
X146593171Y-64853371D02*
X146688409Y-64805752D01*
X146688409Y-64805752D02*
X146783647Y-64805752D01*
X147021743Y-64805752D02*
X147259838Y-65472419D01*
X147497933Y-64805752D02*
X147259838Y-65472419D01*
X147259838Y-65472419D02*
X147164600Y-65710514D01*
X147164600Y-65710514D02*
X147116981Y-65758133D01*
X147116981Y-65758133D02*
X147021743Y-65805752D01*
X148640791Y-65472419D02*
X148640791Y-64472419D01*
X149069362Y-65472419D02*
X149069362Y-64948609D01*
X149069362Y-64948609D02*
X149021743Y-64853371D01*
X149021743Y-64853371D02*
X148926505Y-64805752D01*
X148926505Y-64805752D02*
X148783648Y-64805752D01*
X148783648Y-64805752D02*
X148688410Y-64853371D01*
X148688410Y-64853371D02*
X148640791Y-64900990D01*
X149926505Y-65424800D02*
X149831267Y-65472419D01*
X149831267Y-65472419D02*
X149640791Y-65472419D01*
X149640791Y-65472419D02*
X149545553Y-65424800D01*
X149545553Y-65424800D02*
X149497934Y-65329561D01*
X149497934Y-65329561D02*
X149497934Y-64948609D01*
X149497934Y-64948609D02*
X149545553Y-64853371D01*
X149545553Y-64853371D02*
X149640791Y-64805752D01*
X149640791Y-64805752D02*
X149831267Y-64805752D01*
X149831267Y-64805752D02*
X149926505Y-64853371D01*
X149926505Y-64853371D02*
X149974124Y-64948609D01*
X149974124Y-64948609D02*
X149974124Y-65043847D01*
X149974124Y-65043847D02*
X149497934Y-65139085D01*
X150402696Y-65472419D02*
X150402696Y-64805752D01*
X150402696Y-64996228D02*
X150450315Y-64900990D01*
X150450315Y-64900990D02*
X150497934Y-64853371D01*
X150497934Y-64853371D02*
X150593172Y-64805752D01*
X150593172Y-64805752D02*
X150688410Y-64805752D01*
X151402696Y-65424800D02*
X151307458Y-65472419D01*
X151307458Y-65472419D02*
X151116982Y-65472419D01*
X151116982Y-65472419D02*
X151021744Y-65424800D01*
X151021744Y-65424800D02*
X150974125Y-65329561D01*
X150974125Y-65329561D02*
X150974125Y-64948609D01*
X150974125Y-64948609D02*
X151021744Y-64853371D01*
X151021744Y-64853371D02*
X151116982Y-64805752D01*
X151116982Y-64805752D02*
X151307458Y-64805752D01*
X151307458Y-64805752D02*
X151402696Y-64853371D01*
X151402696Y-64853371D02*
X151450315Y-64948609D01*
X151450315Y-64948609D02*
X151450315Y-65043847D01*
X151450315Y-65043847D02*
X150974125Y-65139085D01*
D11*
X107402319Y-84761904D02*
X108211842Y-84761904D01*
X108211842Y-84761904D02*
X108307080Y-84714285D01*
X108307080Y-84714285D02*
X108354700Y-84666666D01*
X108354700Y-84666666D02*
X108402319Y-84571428D01*
X108402319Y-84571428D02*
X108402319Y-84380952D01*
X108402319Y-84380952D02*
X108354700Y-84285714D01*
X108354700Y-84285714D02*
X108307080Y-84238095D01*
X108307080Y-84238095D02*
X108211842Y-84190476D01*
X108211842Y-84190476D02*
X107402319Y-84190476D01*
X107735652Y-83285714D02*
X108402319Y-83285714D01*
X107354700Y-83523809D02*
X108068985Y-83761904D01*
X108068985Y-83761904D02*
X108068985Y-83142857D01*
%TO.C,C37*%
X118975000Y-63225000D02*
X118975000Y-63725000D01*
X118125000Y-63075000D02*
X118825000Y-63075000D01*
X117975000Y-63725000D02*
X117975000Y-63225000D01*
X117975000Y-64665000D02*
X117975000Y-64165000D01*
X118975000Y-64165000D02*
X118975000Y-64665000D01*
X118825000Y-64815000D02*
X118125000Y-64815000D01*
D12*
X118105000Y-63745000D02*
G75*
G02*
X118045000Y-63745000I-30000J0D01*
G01*
X118045000Y-63745000D02*
G75*
G02*
X118105000Y-63745000I30000J0D01*
G01*
D11*
X118975000Y-64665000D02*
G75*
G02*
X118825000Y-64815000I-150000J0D01*
G01*
X118125000Y-64815000D02*
G75*
G02*
X117975000Y-64665000I0J150000D01*
G01*
X117975000Y-63225000D02*
G75*
G02*
X118125000Y-63075000I150000J0D01*
G01*
X118825000Y-63075000D02*
G75*
G02*
X118975000Y-63225000I0J-150000D01*
G01*
D13*
%TO.C,U2*%
X106330000Y-69110000D02*
X106570000Y-69440000D01*
X106090000Y-69440000D01*
X106330000Y-69110000D01*
G36*
X106570000Y-69440000D02*
G01*
X106090000Y-69440000D01*
X106330000Y-69110000D01*
X106570000Y-69440000D01*
G37*
X105050000Y-69210000D02*
X101290000Y-69210000D01*
X105050000Y-62390000D02*
X101290000Y-62390000D01*
X101290000Y-69210000D02*
X101290000Y-67950000D01*
X101290000Y-62390000D02*
X101290000Y-63650000D01*
%TO.C,C4*%
X107360000Y-71511252D02*
X107360000Y-70988748D01*
X105890000Y-71511252D02*
X105890000Y-70988748D01*
%TO.C,R21*%
X121172936Y-58235000D02*
X121627064Y-58235000D01*
X121172936Y-56765000D02*
X121627064Y-56765000D01*
%TO.C,C35*%
D11*
X117710000Y-63875000D02*
G75*
G02*
X117560000Y-64025000I-150000J0D01*
G01*
X117560000Y-62225000D02*
G75*
G02*
X117710000Y-62375000I0J-150000D01*
G01*
X113940000Y-64025000D02*
G75*
G02*
X113790000Y-63875000I0J150000D01*
G01*
X113790000Y-62375000D02*
G75*
G02*
X113940000Y-62225000I150000J0D01*
G01*
D12*
X116780000Y-62495000D02*
G75*
G02*
X116720000Y-62495000I-30000J0D01*
G01*
X116720000Y-62495000D02*
G75*
G02*
X116780000Y-62495000I30000J0D01*
G01*
D11*
X117710000Y-62375000D02*
X117710000Y-63875000D01*
X116150000Y-62225000D02*
X117560000Y-62225000D01*
X117560000Y-64025000D02*
X116150000Y-64025000D01*
X113790000Y-62375000D02*
X113790000Y-63875000D01*
X115350000Y-62225000D02*
X113940000Y-62225000D01*
X113940000Y-64025000D02*
X115350000Y-64025000D01*
%TO.C,R19*%
D13*
X121185436Y-58790000D02*
X121639564Y-58790000D01*
X121185436Y-60260000D02*
X121639564Y-60260000D01*
%TO.C,R17*%
X115577500Y-53362258D02*
X115577500Y-52887742D01*
X116622500Y-53362258D02*
X116622500Y-52887742D01*
%TO.C,R8*%
X121946359Y-55420000D02*
X122253641Y-55420000D01*
X121946359Y-56180000D02*
X122253641Y-56180000D01*
%TO.C,U10*%
D14*
X122590000Y-61075000D02*
X122750000Y-61075000D01*
X122750000Y-61075000D02*
X122750000Y-61625000D01*
X122750000Y-63925000D02*
X122750000Y-64475000D01*
X122750000Y-64475000D02*
X122590000Y-64475000D01*
X119350000Y-63925000D02*
X119350000Y-64475000D01*
X119350000Y-64475000D02*
X119510000Y-64475000D01*
X119350000Y-61625000D02*
X119350000Y-61075000D01*
X119350000Y-61075000D02*
X119510000Y-61075000D01*
D12*
X122580000Y-61275000D02*
G75*
G02*
X122520000Y-61275000I-30000J0D01*
G01*
X122520000Y-61275000D02*
G75*
G02*
X122580000Y-61275000I30000J0D01*
G01*
D15*
X122520000Y-60525000D02*
G75*
G02*
X122260000Y-60525000I-130000J0D01*
G01*
X122260000Y-60525000D02*
G75*
G02*
X122520000Y-60525000I130000J0D01*
G01*
%TO.C,U9*%
D11*
X119806250Y-56380000D02*
X117646250Y-56380000D01*
X117646250Y-54220000D02*
X119806250Y-54220000D01*
D14*
X120306250Y-56100000D02*
G75*
G02*
X120106250Y-56100000I-100000J0D01*
G01*
X120106250Y-56100000D02*
G75*
G02*
X120306250Y-56100000I100000J0D01*
G01*
D12*
X119756250Y-56300000D02*
G75*
G02*
X119696250Y-56300000I-30000J0D01*
G01*
X119696250Y-56300000D02*
G75*
G02*
X119756250Y-56300000I30000J0D01*
G01*
%TO.C,L2*%
D15*
X123325000Y-64925000D02*
X123325000Y-60825000D01*
X123325000Y-60825000D02*
X127625000Y-60825000D01*
X127625000Y-60825000D02*
X127625000Y-65025000D01*
X127625000Y-65025000D02*
X123325000Y-65025000D01*
D12*
X123455000Y-60925000D02*
G75*
G02*
X123395000Y-60925000I-30000J0D01*
G01*
X123395000Y-60925000D02*
G75*
G02*
X123455000Y-60925000I30000J0D01*
G01*
D16*
G36*
X127424996Y-60225005D02*
G01*
X127424996Y-60425005D01*
X123525004Y-60425005D01*
X123525004Y-60125006D01*
X127424996Y-60125006D01*
X127424996Y-60225005D01*
G37*
%TO.C,CN2*%
D15*
X121380000Y-53150000D02*
X121890000Y-53150000D01*
X121890000Y-53150000D02*
X121890000Y-51240000D01*
X121890000Y-51240000D02*
X126840000Y-51240000D01*
X126840000Y-51240000D02*
X126840000Y-53150000D01*
X126840000Y-53150000D02*
X127220000Y-53150000D01*
X127300000Y-53780000D02*
X126790000Y-53780000D01*
X126790000Y-53780000D02*
X126790000Y-54540000D01*
X126790000Y-54540000D02*
X124630000Y-54540000D01*
X124630000Y-54540000D02*
X124630000Y-55050000D01*
X121380000Y-53780000D02*
X121890000Y-53780000D01*
X121890000Y-53780000D02*
X121890000Y-54540000D01*
X121890000Y-54540000D02*
X124050000Y-54540000D01*
X124050000Y-54540000D02*
X124050000Y-55050000D01*
X121300000Y-50600000D02*
X127300000Y-50600000D01*
X127300000Y-50600000D02*
X127300000Y-55100000D01*
X127300000Y-55100000D02*
X121300000Y-55100000D01*
X121300000Y-55100000D02*
X121300000Y-50600000D01*
D12*
X127280000Y-50600000D02*
G75*
G02*
X127220000Y-50600000I-30000J0D01*
G01*
X127220000Y-50600000D02*
G75*
G02*
X127280000Y-50600000I30000J0D01*
G01*
%TO.C,C38*%
D15*
X118370000Y-66635000D02*
X117570000Y-66635000D01*
X118930000Y-66635000D02*
X119730000Y-66635000D01*
X118370000Y-65215000D02*
X117570000Y-65215000D01*
X118930000Y-65215000D02*
X119730000Y-65215000D01*
X117260000Y-66325000D02*
X117260000Y-65525000D01*
X120040000Y-65525000D02*
X120040000Y-66325000D01*
D12*
X117880000Y-66325000D02*
G75*
G02*
X117820000Y-66325000I-30000J0D01*
G01*
X117820000Y-66325000D02*
G75*
G02*
X117880000Y-66325000I30000J0D01*
G01*
D15*
X119730000Y-65215000D02*
G75*
G02*
X120040000Y-65525000I0J-310000D01*
G01*
X120040000Y-66325000D02*
G75*
G02*
X119730000Y-66635000I-310000J0D01*
G01*
X117570000Y-66635000D02*
G75*
G02*
X117260000Y-66325000I0J310000D01*
G01*
X117260000Y-65525000D02*
G75*
G02*
X117570000Y-65215000I310000J0D01*
G01*
%TO.C,C36*%
D11*
X123415000Y-59175000D02*
X124825000Y-59175000D01*
X124825000Y-57375000D02*
X123415000Y-57375000D01*
X123265000Y-57525000D02*
X123265000Y-59025000D01*
X127035000Y-59175000D02*
X125625000Y-59175000D01*
X125625000Y-57375000D02*
X127035000Y-57375000D01*
X127185000Y-57525000D02*
X127185000Y-59025000D01*
D12*
X126255000Y-57645000D02*
G75*
G02*
X126195000Y-57645000I-30000J0D01*
G01*
X126195000Y-57645000D02*
G75*
G02*
X126255000Y-57645000I30000J0D01*
G01*
D11*
X123265000Y-57525000D02*
G75*
G02*
X123415000Y-57375000I150000J0D01*
G01*
X123415000Y-59175000D02*
G75*
G02*
X123265000Y-59025000I0J150000D01*
G01*
X127035000Y-57375000D02*
G75*
G02*
X127185000Y-57525000I0J-150000D01*
G01*
X127185000Y-59025000D02*
G75*
G02*
X127035000Y-59175000I-150000J0D01*
G01*
%TO.C,C30*%
X114190000Y-60025000D02*
X115600000Y-60025000D01*
X115600000Y-58225000D02*
X114190000Y-58225000D01*
X114040000Y-58375000D02*
X114040000Y-59875000D01*
X117810000Y-60025000D02*
X116400000Y-60025000D01*
X116400000Y-58225000D02*
X117810000Y-58225000D01*
X117960000Y-58375000D02*
X117960000Y-59875000D01*
D12*
X117030000Y-58495000D02*
G75*
G02*
X116970000Y-58495000I-30000J0D01*
G01*
X116970000Y-58495000D02*
G75*
G02*
X117030000Y-58495000I30000J0D01*
G01*
D11*
X114040000Y-58375000D02*
G75*
G02*
X114190000Y-58225000I150000J0D01*
G01*
X114190000Y-60025000D02*
G75*
G02*
X114040000Y-59875000I0J150000D01*
G01*
X117810000Y-58225000D02*
G75*
G02*
X117960000Y-58375000I0J-150000D01*
G01*
X117960000Y-59875000D02*
G75*
G02*
X117810000Y-60025000I-150000J0D01*
G01*
%TO.C,C28*%
X123340000Y-57150000D02*
X124750000Y-57150000D01*
X124750000Y-55350000D02*
X123340000Y-55350000D01*
X123190000Y-55500000D02*
X123190000Y-57000000D01*
X126960000Y-57150000D02*
X125550000Y-57150000D01*
X125550000Y-55350000D02*
X126960000Y-55350000D01*
X127110000Y-55500000D02*
X127110000Y-57000000D01*
D12*
X126180000Y-55620000D02*
G75*
G02*
X126120000Y-55620000I-30000J0D01*
G01*
X126120000Y-55620000D02*
G75*
G02*
X126180000Y-55620000I30000J0D01*
G01*
D11*
X123190000Y-55500000D02*
G75*
G02*
X123340000Y-55350000I150000J0D01*
G01*
X123340000Y-57150000D02*
G75*
G02*
X123190000Y-57000000I0J150000D01*
G01*
X126960000Y-55350000D02*
G75*
G02*
X127110000Y-55500000I0J-150000D01*
G01*
X127110000Y-57000000D02*
G75*
G02*
X126960000Y-57150000I-150000J0D01*
G01*
%TO.C,C24*%
X114165000Y-62050000D02*
X115575000Y-62050000D01*
X115575000Y-60250000D02*
X114165000Y-60250000D01*
X114015000Y-60400000D02*
X114015000Y-61900000D01*
X117785000Y-62050000D02*
X116375000Y-62050000D01*
X116375000Y-60250000D02*
X117785000Y-60250000D01*
X117935000Y-60400000D02*
X117935000Y-61900000D01*
D12*
X117005000Y-60520000D02*
G75*
G02*
X116945000Y-60520000I-30000J0D01*
G01*
X116945000Y-60520000D02*
G75*
G02*
X117005000Y-60520000I30000J0D01*
G01*
D11*
X114015000Y-60400000D02*
G75*
G02*
X114165000Y-60250000I150000J0D01*
G01*
X114165000Y-62050000D02*
G75*
G02*
X114015000Y-61900000I0J150000D01*
G01*
X117785000Y-60250000D02*
G75*
G02*
X117935000Y-60400000I0J-150000D01*
G01*
X117935000Y-61900000D02*
G75*
G02*
X117785000Y-62050000I-150000J0D01*
G01*
%TO.C,C23*%
X120760000Y-51825000D02*
X119350000Y-51825000D01*
X119350000Y-53625000D02*
X120760000Y-53625000D01*
X120910000Y-53475000D02*
X120910000Y-51975000D01*
X117140000Y-51825000D02*
X118550000Y-51825000D01*
X118550000Y-53625000D02*
X117140000Y-53625000D01*
X116990000Y-53475000D02*
X116990000Y-51975000D01*
D12*
X117980000Y-53355000D02*
G75*
G02*
X117920000Y-53355000I-30000J0D01*
G01*
X117920000Y-53355000D02*
G75*
G02*
X117980000Y-53355000I30000J0D01*
G01*
D11*
X120910000Y-53475000D02*
G75*
G02*
X120760000Y-53625000I-150000J0D01*
G01*
X120760000Y-51825000D02*
G75*
G02*
X120910000Y-51975000I0J-150000D01*
G01*
X117140000Y-53625000D02*
G75*
G02*
X116990000Y-53475000I0J150000D01*
G01*
X116990000Y-51975000D02*
G75*
G02*
X117140000Y-51825000I150000J0D01*
G01*
%TO.C,C11*%
D13*
X116290000Y-67237836D02*
X116290000Y-67022164D01*
X117010000Y-67237836D02*
X117010000Y-67022164D01*
%TO.C,R4*%
X109036359Y-75245000D02*
X109343641Y-75245000D01*
X109036359Y-76005000D02*
X109343641Y-76005000D01*
%TO.C,R16*%
D11*
X102910000Y-57740000D02*
X103870000Y-57740000D01*
X102910000Y-59060000D02*
X102910000Y-57740000D01*
X103870000Y-59060000D02*
X102910000Y-59060000D01*
X104730000Y-59060000D02*
X105690000Y-59060000D01*
X105690000Y-57740000D02*
X104730000Y-57740000D01*
X105690000Y-59060000D02*
X105690000Y-57740000D01*
D12*
X103530000Y-58800000D02*
G75*
G02*
X103470000Y-58800000I-30000J0D01*
G01*
X103470000Y-58800000D02*
G75*
G02*
X103530000Y-58800000I30000J0D01*
G01*
%TO.C,C19*%
D11*
X93800000Y-55190000D02*
X93800000Y-56600000D01*
X93800000Y-58810000D02*
X93800000Y-57400000D01*
X95450000Y-55040000D02*
X93950000Y-55040000D01*
X95450000Y-58960000D02*
X93950000Y-58960000D01*
X95600000Y-56600000D02*
X95600000Y-55190000D01*
X95600000Y-57400000D02*
X95600000Y-58810000D01*
X93800000Y-55190000D02*
G75*
G02*
X93950000Y-55040000I150000J0D01*
G01*
X93950000Y-58960000D02*
G75*
G02*
X93800000Y-58810000I0J150000D01*
G01*
X95450000Y-55040000D02*
G75*
G02*
X95600000Y-55190000I0J-150000D01*
G01*
X95600000Y-58810000D02*
G75*
G02*
X95450000Y-58960000I-150000J0D01*
G01*
D12*
X95360000Y-58000000D02*
G75*
G02*
X95300000Y-58000000I-30000J0D01*
G01*
X95300000Y-58000000D02*
G75*
G02*
X95360000Y-58000000I30000J0D01*
G01*
%TO.C,R2*%
D13*
X92520000Y-87821359D02*
X92520000Y-88128641D01*
X93280000Y-87821359D02*
X93280000Y-88128641D01*
%TO.C,U5*%
D11*
X110786989Y-88273583D02*
X113728553Y-85332019D01*
X111069832Y-88556426D02*
X110786989Y-88273583D01*
X113021447Y-90508041D02*
X112738604Y-90225198D01*
X113021447Y-90508041D02*
X115963011Y-87566477D01*
X114011396Y-85614862D02*
X113728553Y-85332019D01*
X115963011Y-87566477D02*
X115680168Y-87283634D01*
D15*
X114184999Y-87920030D02*
G75*
G02*
X112565001Y-87920030I-809999J0D01*
G01*
X112565001Y-87920030D02*
G75*
G02*
X114184999Y-87920030I809999J0D01*
G01*
D12*
X114147462Y-85126958D02*
G75*
G02*
X114087462Y-85126958I-30000J0D01*
G01*
X114087462Y-85126958D02*
G75*
G02*
X114147462Y-85126958I30000J0D01*
G01*
%TO.C,U4*%
D13*
X105240000Y-81240000D02*
X105510000Y-81240000D01*
X105240000Y-86760000D02*
X105240000Y-81240000D01*
X105510000Y-86760000D02*
X105240000Y-86760000D01*
X110490000Y-81240000D02*
X110760000Y-81240000D01*
X110760000Y-81240000D02*
X110760000Y-86760000D01*
X110760000Y-86760000D02*
X110490000Y-86760000D01*
X105500000Y-87590000D02*
X105030000Y-87930000D01*
X105030000Y-87250000D01*
X105500000Y-87590000D01*
G36*
X105500000Y-87590000D02*
G01*
X105030000Y-87930000D01*
X105030000Y-87250000D01*
X105500000Y-87590000D01*
G37*
%TO.C,C34*%
D15*
X96160000Y-71850000D02*
X96160000Y-71050000D01*
X97270000Y-70740000D02*
X96470000Y-70740000D01*
X97270000Y-72160000D02*
X96470000Y-72160000D01*
X97830000Y-70740000D02*
X98630000Y-70740000D01*
X97830000Y-72160000D02*
X98630000Y-72160000D01*
X98940000Y-71050000D02*
X98940000Y-71850000D01*
X96160000Y-71050000D02*
G75*
G02*
X96470000Y-70740000I310000J0D01*
G01*
X96470000Y-72160000D02*
G75*
G02*
X96160000Y-71850000I0J310000D01*
G01*
X98630000Y-70740000D02*
G75*
G02*
X98940000Y-71050000I0J-310000D01*
G01*
X98940000Y-71850000D02*
G75*
G02*
X98630000Y-72160000I-310000J0D01*
G01*
D12*
X98380000Y-71050000D02*
G75*
G02*
X98320000Y-71050000I-30000J0D01*
G01*
X98320000Y-71050000D02*
G75*
G02*
X98380000Y-71050000I30000J0D01*
G01*
%TO.C,C8*%
D13*
X115365000Y-67227836D02*
X115365000Y-67012164D01*
X116085000Y-67227836D02*
X116085000Y-67012164D01*
%TO.C,C22*%
D11*
X94940000Y-75550000D02*
X94940000Y-74050000D01*
X95090000Y-73900000D02*
X96500000Y-73900000D01*
X96500000Y-75700000D02*
X95090000Y-75700000D01*
X97300000Y-75700000D02*
X98710000Y-75700000D01*
X98710000Y-73900000D02*
X97300000Y-73900000D01*
X98860000Y-75550000D02*
X98860000Y-74050000D01*
X94940000Y-74050000D02*
G75*
G02*
X95090000Y-73900000I150000J0D01*
G01*
X95090000Y-75700000D02*
G75*
G02*
X94940000Y-75550000I0J150000D01*
G01*
X98710000Y-73900000D02*
G75*
G02*
X98860000Y-74050000I0J-150000D01*
G01*
X98860000Y-75550000D02*
G75*
G02*
X98710000Y-75700000I-150000J0D01*
G01*
D12*
X95930000Y-75430000D02*
G75*
G02*
X95870000Y-75430000I-30000J0D01*
G01*
X95870000Y-75430000D02*
G75*
G02*
X95930000Y-75430000I30000J0D01*
G01*
%TO.C,C16*%
D13*
X103865000Y-87592164D02*
X103865000Y-87807836D01*
X104585000Y-87592164D02*
X104585000Y-87807836D01*
%TO.C,R5*%
X109036359Y-76245000D02*
X109343641Y-76245000D01*
X109036359Y-77005000D02*
X109343641Y-77005000D01*
%TO.C,C1*%
X111275000Y-73512836D02*
X111275000Y-73297164D01*
X111995000Y-73512836D02*
X111995000Y-73297164D01*
%TO.C,C17*%
X122090000Y-72732836D02*
X122090000Y-72517164D01*
X122810000Y-72732836D02*
X122810000Y-72517164D01*
%TO.C,R10*%
D11*
X102910000Y-59390000D02*
X103870000Y-59390000D01*
X102910000Y-60710000D02*
X102910000Y-59390000D01*
X103870000Y-60710000D02*
X102910000Y-60710000D01*
X104730000Y-60710000D02*
X105690000Y-60710000D01*
X105690000Y-59390000D02*
X104730000Y-59390000D01*
X105690000Y-60710000D02*
X105690000Y-59390000D01*
D12*
X103530000Y-60450000D02*
G75*
G02*
X103470000Y-60450000I-30000J0D01*
G01*
X103470000Y-60450000D02*
G75*
G02*
X103530000Y-60450000I30000J0D01*
G01*
%TO.C,C26*%
D11*
X94590000Y-65450000D02*
X94590000Y-66950000D01*
X94740000Y-67100000D02*
X96150000Y-67100000D01*
X96150000Y-65300000D02*
X94740000Y-65300000D01*
X96950000Y-65300000D02*
X98360000Y-65300000D01*
X98360000Y-67100000D02*
X96950000Y-67100000D01*
X98510000Y-65450000D02*
X98510000Y-66950000D01*
X94590000Y-65450000D02*
G75*
G02*
X94740000Y-65300000I150000J0D01*
G01*
X94740000Y-67100000D02*
G75*
G02*
X94590000Y-66950000I0J150000D01*
G01*
X98360000Y-65300000D02*
G75*
G02*
X98510000Y-65450000I0J-150000D01*
G01*
X98510000Y-66950000D02*
G75*
G02*
X98360000Y-67100000I-150000J0D01*
G01*
D12*
X97580000Y-65570000D02*
G75*
G02*
X97520000Y-65570000I-30000J0D01*
G01*
X97520000Y-65570000D02*
G75*
G02*
X97580000Y-65570000I30000J0D01*
G01*
%TO.C,C13*%
D13*
X120065000Y-69802836D02*
X120065000Y-69587164D01*
X120785000Y-69802836D02*
X120785000Y-69587164D01*
%TO.C,R7*%
X106820000Y-89978641D02*
X106820000Y-89671359D01*
X107580000Y-89978641D02*
X107580000Y-89671359D01*
%TO.C,C3*%
X111492164Y-70965000D02*
X111707836Y-70965000D01*
X111492164Y-71685000D02*
X111707836Y-71685000D01*
%TO.C,C29*%
D11*
X94990000Y-77550000D02*
X94990000Y-76050000D01*
X95140000Y-75900000D02*
X96550000Y-75900000D01*
X96550000Y-77700000D02*
X95140000Y-77700000D01*
X97350000Y-77700000D02*
X98760000Y-77700000D01*
X98760000Y-75900000D02*
X97350000Y-75900000D01*
X98910000Y-77550000D02*
X98910000Y-76050000D01*
X94990000Y-76050000D02*
G75*
G02*
X95140000Y-75900000I150000J0D01*
G01*
X95140000Y-77700000D02*
G75*
G02*
X94990000Y-77550000I0J150000D01*
G01*
X98760000Y-75900000D02*
G75*
G02*
X98910000Y-76050000I0J-150000D01*
G01*
X98910000Y-77550000D02*
G75*
G02*
X98760000Y-77700000I-150000J0D01*
G01*
D12*
X95980000Y-77430000D02*
G75*
G02*
X95920000Y-77430000I-30000J0D01*
G01*
X95920000Y-77430000D02*
G75*
G02*
X95980000Y-77430000I30000J0D01*
G01*
%TO.C,R9*%
D13*
X104670000Y-89661359D02*
X104670000Y-89968641D01*
X105430000Y-89661359D02*
X105430000Y-89968641D01*
%TO.C,C32*%
D15*
X95810000Y-68450000D02*
X95810000Y-67650000D01*
X96920000Y-67340000D02*
X96120000Y-67340000D01*
X96920000Y-68760000D02*
X96120000Y-68760000D01*
X97480000Y-67340000D02*
X98280000Y-67340000D01*
X97480000Y-68760000D02*
X98280000Y-68760000D01*
X98590000Y-67650000D02*
X98590000Y-68450000D01*
X95810000Y-67650000D02*
G75*
G02*
X96120000Y-67340000I310000J0D01*
G01*
X96120000Y-68760000D02*
G75*
G02*
X95810000Y-68450000I0J310000D01*
G01*
X98280000Y-67340000D02*
G75*
G02*
X98590000Y-67650000I0J-310000D01*
G01*
X98590000Y-68450000D02*
G75*
G02*
X98280000Y-68760000I-310000J0D01*
G01*
D12*
X98030000Y-67650000D02*
G75*
G02*
X97970000Y-67650000I-30000J0D01*
G01*
X97970000Y-67650000D02*
G75*
G02*
X98030000Y-67650000I30000J0D01*
G01*
%TO.C,FPC1*%
D15*
X86495000Y-63750000D02*
X87615000Y-63750000D01*
X86495000Y-79250000D02*
X86495000Y-63750000D01*
X86495000Y-79250000D02*
X87615000Y-79250000D01*
X89885000Y-63750000D02*
X91895000Y-63750000D01*
X89885000Y-79250000D02*
X91875000Y-79250000D01*
X91875000Y-79250000D02*
X91875000Y-77630000D01*
X91895000Y-63750000D02*
X91895000Y-65370000D01*
D12*
X92275000Y-79250000D02*
G75*
G02*
X92215000Y-79250000I-30000J0D01*
G01*
X92215000Y-79250000D02*
G75*
G02*
X92275000Y-79250000I30000J0D01*
G01*
D15*
X92505000Y-78000000D02*
G75*
G02*
X92245000Y-78000000I-130000J0D01*
G01*
X92245000Y-78000000D02*
G75*
G02*
X92505000Y-78000000I130000J0D01*
G01*
%TO.C,D6*%
X96850000Y-59100000D02*
X101050000Y-59100000D01*
X96850000Y-59330000D02*
X96850000Y-59100000D01*
X96850000Y-61700000D02*
X96850000Y-61470000D01*
X98230000Y-60400000D02*
X99700000Y-60400000D01*
X98700000Y-59900000D02*
X98700000Y-60900000D01*
X98700000Y-60400000D02*
X99200000Y-60900000D01*
X99200000Y-59900000D02*
X98700000Y-60400000D01*
X99200000Y-60900000D02*
X99200000Y-59900000D01*
X101050000Y-59100000D02*
X101050000Y-59330000D01*
X101050000Y-61470000D02*
X101050000Y-61700000D01*
X101050000Y-61700000D02*
X96850000Y-61700000D01*
D12*
X96350000Y-61700000D02*
G75*
G02*
X96290000Y-61700000I-30000J0D01*
G01*
X96290000Y-61700000D02*
G75*
G02*
X96350000Y-61700000I30000J0D01*
G01*
%TO.C,C10*%
D13*
X113215000Y-82412164D02*
X113215000Y-82627836D01*
X113935000Y-82412164D02*
X113935000Y-82627836D01*
%TO.C,D4*%
D15*
X96750000Y-56000000D02*
X100950000Y-56000000D01*
X96750000Y-56230000D02*
X96750000Y-56000000D01*
X96750000Y-58600000D02*
X96750000Y-58370000D01*
X98600000Y-56800000D02*
X98600000Y-57800000D01*
X98600000Y-57800000D02*
X99100000Y-57300000D01*
X99100000Y-57300000D02*
X98600000Y-56800000D01*
X99100000Y-57800000D02*
X99100000Y-56800000D01*
X99570000Y-57300000D02*
X98100000Y-57300000D01*
X100950000Y-56000000D02*
X100950000Y-56230000D01*
X100950000Y-58370000D02*
X100950000Y-58600000D01*
X100950000Y-58600000D02*
X96750000Y-58600000D01*
D12*
X101510000Y-56000000D02*
G75*
G02*
X101450000Y-56000000I-30000J0D01*
G01*
X101450000Y-56000000D02*
G75*
G02*
X101510000Y-56000000I30000J0D01*
G01*
%TO.C,C5*%
D13*
X105940000Y-74763748D02*
X105940000Y-75286252D01*
X107410000Y-74763748D02*
X107410000Y-75286252D01*
%TO.C,C21*%
D11*
X94200000Y-59340000D02*
X94200000Y-60750000D01*
X94200000Y-62960000D02*
X94200000Y-61550000D01*
X95850000Y-59190000D02*
X94350000Y-59190000D01*
X95850000Y-63110000D02*
X94350000Y-63110000D01*
X96000000Y-60750000D02*
X96000000Y-59340000D01*
X96000000Y-61550000D02*
X96000000Y-62960000D01*
X94200000Y-59340000D02*
G75*
G02*
X94350000Y-59190000I150000J0D01*
G01*
X94350000Y-63110000D02*
G75*
G02*
X94200000Y-62960000I0J150000D01*
G01*
X95850000Y-59190000D02*
G75*
G02*
X96000000Y-59340000I0J-150000D01*
G01*
X96000000Y-62960000D02*
G75*
G02*
X95850000Y-63110000I-150000J0D01*
G01*
D12*
X95760000Y-62150000D02*
G75*
G02*
X95700000Y-62150000I-30000J0D01*
G01*
X95700000Y-62150000D02*
G75*
G02*
X95760000Y-62150000I30000J0D01*
G01*
%TO.C,U6*%
D11*
X123020000Y-71720000D02*
X126380000Y-71720000D01*
X123020000Y-75780000D02*
X123020000Y-71720000D01*
X124950000Y-76010000D02*
X126610000Y-76010000D01*
X126380000Y-71720000D02*
X126380000Y-75780000D01*
X126380000Y-75780000D02*
X123020000Y-75780000D01*
X126610000Y-76010000D02*
X126610000Y-74150000D01*
D12*
X125980000Y-75350000D02*
G75*
G02*
X125920000Y-75350000I-30000J0D01*
G01*
X125920000Y-75350000D02*
G75*
G02*
X125980000Y-75350000I30000J0D01*
G01*
%TO.C,C27*%
D11*
X88740000Y-57250000D02*
X88740000Y-55750000D01*
X88890000Y-55600000D02*
X90300000Y-55600000D01*
X90300000Y-57400000D02*
X88890000Y-57400000D01*
X91100000Y-57400000D02*
X92510000Y-57400000D01*
X92510000Y-55600000D02*
X91100000Y-55600000D01*
X92660000Y-57250000D02*
X92660000Y-55750000D01*
X88740000Y-55750000D02*
G75*
G02*
X88890000Y-55600000I150000J0D01*
G01*
X88890000Y-57400000D02*
G75*
G02*
X88740000Y-57250000I0J150000D01*
G01*
X92510000Y-55600000D02*
G75*
G02*
X92660000Y-55750000I0J-150000D01*
G01*
X92660000Y-57250000D02*
G75*
G02*
X92510000Y-57400000I-150000J0D01*
G01*
D12*
X89730000Y-57130000D02*
G75*
G02*
X89670000Y-57130000I-30000J0D01*
G01*
X89670000Y-57130000D02*
G75*
G02*
X89730000Y-57130000I30000J0D01*
G01*
%TO.C,R11*%
D11*
X95510000Y-72390000D02*
X96470000Y-72390000D01*
X95510000Y-73710000D02*
X95510000Y-72390000D01*
X96470000Y-73710000D02*
X95510000Y-73710000D01*
X97330000Y-73710000D02*
X98290000Y-73710000D01*
X98290000Y-72390000D02*
X97330000Y-72390000D01*
X98290000Y-73710000D02*
X98290000Y-72390000D01*
D12*
X96130000Y-73450000D02*
G75*
G02*
X96070000Y-73450000I-30000J0D01*
G01*
X96070000Y-73450000D02*
G75*
G02*
X96130000Y-73450000I30000J0D01*
G01*
%TO.C,U1*%
D13*
X112790000Y-71765000D02*
X113240000Y-71765000D01*
X112790000Y-72215000D02*
X112790000Y-71765000D01*
X112790000Y-78985000D02*
X112790000Y-78535000D01*
X113240000Y-78985000D02*
X112790000Y-78985000D01*
X119560000Y-71765000D02*
X120010000Y-71765000D01*
X120010000Y-71765000D02*
X120010000Y-72215000D01*
X120010000Y-78535000D02*
X120010000Y-78985000D01*
X120010000Y-78985000D02*
X119560000Y-78985000D01*
X113600000Y-79485000D02*
X113840000Y-79815000D01*
X113360000Y-79815000D01*
X113600000Y-79485000D01*
G36*
X113840000Y-79815000D02*
G01*
X113360000Y-79815000D01*
X113600000Y-79485000D01*
X113840000Y-79815000D01*
G37*
%TO.C,L1*%
D15*
X108325000Y-73745000D02*
X108325000Y-73205000D01*
X109925000Y-73745000D02*
X109925000Y-73205000D01*
X108155000Y-72575000D02*
G75*
G02*
X107895000Y-72575000I-130000J0D01*
G01*
X107895000Y-72575000D02*
G75*
G02*
X108155000Y-72575000I130000J0D01*
G01*
D12*
X110030000Y-74550000D02*
G75*
G02*
X109970000Y-74550000I-30000J0D01*
G01*
X109970000Y-74550000D02*
G75*
G02*
X110030000Y-74550000I30000J0D01*
G01*
%TO.C,C9*%
D13*
X109287836Y-77265000D02*
X109072164Y-77265000D01*
X109287836Y-77985000D02*
X109072164Y-77985000D01*
%TO.C,C33*%
D15*
X96260000Y-70150000D02*
X96260000Y-69350000D01*
X97370000Y-69040000D02*
X96570000Y-69040000D01*
X97370000Y-70460000D02*
X96570000Y-70460000D01*
X97930000Y-69040000D02*
X98730000Y-69040000D01*
X97930000Y-70460000D02*
X98730000Y-70460000D01*
X99040000Y-69350000D02*
X99040000Y-70150000D01*
X96260000Y-69350000D02*
G75*
G02*
X96570000Y-69040000I310000J0D01*
G01*
X96570000Y-70460000D02*
G75*
G02*
X96260000Y-70150000I0J310000D01*
G01*
X98730000Y-69040000D02*
G75*
G02*
X99040000Y-69350000I0J-310000D01*
G01*
X99040000Y-70150000D02*
G75*
G02*
X98730000Y-70460000I-310000J0D01*
G01*
D12*
X98480000Y-69350000D02*
G75*
G02*
X98420000Y-69350000I-30000J0D01*
G01*
X98420000Y-69350000D02*
G75*
G02*
X98480000Y-69350000I30000J0D01*
G01*
%TO.C,C31*%
D15*
X92590000Y-64020000D02*
X92590000Y-63220000D01*
X92590000Y-64580000D02*
X92590000Y-65380000D01*
X92900000Y-62910000D02*
X93700000Y-62910000D01*
X93700000Y-65690000D02*
X92900000Y-65690000D01*
X94010000Y-64020000D02*
X94010000Y-63220000D01*
X94010000Y-64580000D02*
X94010000Y-65380000D01*
X92590000Y-63220000D02*
G75*
G02*
X92900000Y-62910000I310000J0D01*
G01*
X92900000Y-65690000D02*
G75*
G02*
X92590000Y-65380000I0J310000D01*
G01*
X93700000Y-62910000D02*
G75*
G02*
X94010000Y-63220000I0J-310000D01*
G01*
X94010000Y-65380000D02*
G75*
G02*
X93700000Y-65690000I-310000J0D01*
G01*
D12*
X92930000Y-63500000D02*
G75*
G02*
X92870000Y-63500000I-30000J0D01*
G01*
X92870000Y-63500000D02*
G75*
G02*
X92930000Y-63500000I30000J0D01*
G01*
%TO.C,R15*%
D11*
X102910000Y-56190000D02*
X103870000Y-56190000D01*
X102910000Y-57510000D02*
X102910000Y-56190000D01*
X103870000Y-57510000D02*
X102910000Y-57510000D01*
X104730000Y-57510000D02*
X105690000Y-57510000D01*
X105690000Y-56190000D02*
X104730000Y-56190000D01*
X105690000Y-57510000D02*
X105690000Y-56190000D01*
D12*
X103530000Y-57250000D02*
G75*
G02*
X103470000Y-57250000I-30000J0D01*
G01*
X103470000Y-57250000D02*
G75*
G02*
X103530000Y-57250000I30000J0D01*
G01*
%TO.C,R6*%
D13*
X105745000Y-89963641D02*
X105745000Y-89656359D01*
X106505000Y-89963641D02*
X106505000Y-89656359D01*
%TO.C,C6*%
X116021693Y-82719190D02*
X115869190Y-82871693D01*
X116530810Y-83228307D02*
X116378307Y-83380810D01*
%TO.C,C14*%
X112615000Y-69332836D02*
X112615000Y-69117164D01*
X113335000Y-69332836D02*
X113335000Y-69117164D01*
%TO.C,U8*%
D15*
X99150000Y-74300000D02*
X99550000Y-73900000D01*
X99150000Y-76300000D02*
X99150000Y-74300000D01*
X99150000Y-79500000D02*
X99150000Y-77500000D01*
X99550000Y-73900000D02*
X103950000Y-73900000D01*
X99550000Y-79900000D02*
X99150000Y-79500000D01*
X103950000Y-73900000D02*
X104350000Y-74300000D01*
X103950000Y-79900000D02*
X99550000Y-79900000D01*
X104350000Y-74300000D02*
X104350000Y-76300000D01*
X104350000Y-77500000D02*
X104350000Y-79500000D01*
X104350000Y-79500000D02*
X103950000Y-79900000D01*
D12*
X99760000Y-74740000D02*
G75*
G02*
X99700000Y-74740000I-30000J0D01*
G01*
X99700000Y-74740000D02*
G75*
G02*
X99760000Y-74740000I30000J0D01*
G01*
%TO.C,C2*%
D13*
X110355000Y-73512836D02*
X110355000Y-73297164D01*
X111075000Y-73512836D02*
X111075000Y-73297164D01*
%TO.C,SW1*%
D15*
X105975000Y-52487500D02*
X115075000Y-52487500D01*
X105975000Y-55987500D02*
X105975000Y-52487500D01*
X108775000Y-50387500D02*
X108775000Y-52457500D01*
X110275000Y-50387500D02*
X108775000Y-50387500D01*
X110275000Y-50387500D02*
X110275000Y-52477500D01*
X115075000Y-52487500D02*
X115075000Y-55987500D01*
X115075000Y-55987500D02*
X105975000Y-55987500D01*
D12*
X106005000Y-58187500D02*
G75*
G02*
X105945000Y-58187500I-30000J0D01*
G01*
X105945000Y-58187500D02*
G75*
G02*
X106005000Y-58187500I30000J0D01*
G01*
%TO.C,C12*%
D13*
X118240000Y-80692164D02*
X118240000Y-80907836D01*
X118960000Y-80692164D02*
X118960000Y-80907836D01*
%TO.C,R1*%
X109596359Y-70945000D02*
X109903641Y-70945000D01*
X109596359Y-71705000D02*
X109903641Y-71705000D01*
%TO.C,R3*%
X92370000Y-83353641D02*
X92370000Y-83046359D01*
X93130000Y-83353641D02*
X93130000Y-83046359D01*
%TO.C,C7*%
X121717164Y-73815000D02*
X121932836Y-73815000D01*
X121717164Y-74535000D02*
X121932836Y-74535000D01*
%TO.C,U3*%
D15*
X84037500Y-81000000D02*
X85557500Y-81000000D01*
X84037500Y-90000000D02*
X84037500Y-81000000D01*
X84037500Y-90000000D02*
X85557500Y-90000000D01*
X87777500Y-81000000D02*
X89587500Y-81000000D01*
X87777500Y-90000000D02*
X89587500Y-90000000D01*
D12*
X91997500Y-81030000D02*
G75*
G02*
X91937500Y-81030000I-30000J0D01*
G01*
X91937500Y-81030000D02*
G75*
G02*
X91997500Y-81030000I30000J0D01*
G01*
%TO.C,R14*%
D11*
X92790000Y-73950000D02*
X93500000Y-73950000D01*
X92790000Y-74950000D02*
X92790000Y-73950000D01*
X93500000Y-74950000D02*
X92790000Y-74950000D01*
X93960000Y-74950000D02*
X94670000Y-74950000D01*
X94670000Y-73950000D02*
X93960000Y-73950000D01*
X94670000Y-74950000D02*
X94670000Y-73950000D01*
D12*
X93260000Y-74795000D02*
G75*
G02*
X93200000Y-74795000I-30000J0D01*
G01*
X93200000Y-74795000D02*
G75*
G02*
X93260000Y-74795000I30000J0D01*
G01*
%TO.C,Q1*%
D11*
X94120000Y-78620000D02*
X95160000Y-78620000D01*
X94120000Y-80080000D02*
X94120000Y-78620000D01*
X96110000Y-80080000D02*
X95190000Y-80080000D01*
X97180000Y-78620000D02*
X96140000Y-78620000D01*
X97180000Y-80080000D02*
X97180000Y-78620000D01*
D12*
X94230000Y-80550000D02*
G75*
G02*
X94170000Y-80550000I-30000J0D01*
G01*
X94170000Y-80550000D02*
G75*
G02*
X94230000Y-80550000I30000J0D01*
G01*
%TO.C,C18*%
D13*
X126765000Y-73267164D02*
X126765000Y-73482836D01*
X127485000Y-73267164D02*
X127485000Y-73482836D01*
%TO.C,U7*%
D15*
X122215000Y-65950000D02*
X124535000Y-65950000D01*
X122215000Y-66920000D02*
X122215000Y-65950000D01*
X122215000Y-70820000D02*
X122215000Y-70950000D01*
X122215000Y-70950000D02*
X122215000Y-69980000D01*
X122215000Y-70950000D02*
X124535000Y-70950000D01*
X126465000Y-69770000D02*
X126465000Y-67130000D01*
D12*
X121545000Y-70950000D02*
G75*
G02*
X121485000Y-70950000I-30000J0D01*
G01*
X121485000Y-70950000D02*
G75*
G02*
X121545000Y-70950000I30000J0D01*
G01*
D15*
X122145000Y-70450000D02*
G75*
G02*
X121505000Y-70450000I-320000J0D01*
G01*
X121505000Y-70450000D02*
G75*
G02*
X122145000Y-70450000I320000J0D01*
G01*
%TO.C,D5*%
X88650000Y-59950000D02*
X92850000Y-59950000D01*
X88650000Y-60180000D02*
X88650000Y-59950000D01*
X88650000Y-62550000D02*
X88650000Y-62320000D01*
X90030000Y-61250000D02*
X91500000Y-61250000D01*
X90500000Y-60750000D02*
X90500000Y-61750000D01*
X90500000Y-61250000D02*
X91000000Y-61750000D01*
X91000000Y-60750000D02*
X90500000Y-61250000D01*
X91000000Y-61750000D02*
X91000000Y-60750000D01*
X92850000Y-59950000D02*
X92850000Y-60180000D01*
X92850000Y-62320000D02*
X92850000Y-62550000D01*
X92850000Y-62550000D02*
X88650000Y-62550000D01*
D12*
X88150000Y-62550000D02*
G75*
G02*
X88090000Y-62550000I-30000J0D01*
G01*
X88090000Y-62550000D02*
G75*
G02*
X88150000Y-62550000I30000J0D01*
G01*
%TO.C,C20*%
D11*
X94590000Y-63450000D02*
X94590000Y-64950000D01*
X94740000Y-65100000D02*
X96150000Y-65100000D01*
X96150000Y-63300000D02*
X94740000Y-63300000D01*
X96950000Y-63300000D02*
X98360000Y-63300000D01*
X98360000Y-65100000D02*
X96950000Y-65100000D01*
X98510000Y-63450000D02*
X98510000Y-64950000D01*
X94590000Y-63450000D02*
G75*
G02*
X94740000Y-63300000I150000J0D01*
G01*
X94740000Y-65100000D02*
G75*
G02*
X94590000Y-64950000I0J150000D01*
G01*
X98360000Y-63300000D02*
G75*
G02*
X98510000Y-63450000I0J-150000D01*
G01*
X98510000Y-64950000D02*
G75*
G02*
X98360000Y-65100000I-150000J0D01*
G01*
D12*
X97580000Y-63570000D02*
G75*
G02*
X97520000Y-63570000I-30000J0D01*
G01*
X97520000Y-63570000D02*
G75*
G02*
X97580000Y-63570000I30000J0D01*
G01*
%TO.C,C25*%
D11*
X88740000Y-59450000D02*
X88740000Y-57950000D01*
X88890000Y-57800000D02*
X90300000Y-57800000D01*
X90300000Y-59600000D02*
X88890000Y-59600000D01*
X91100000Y-59600000D02*
X92510000Y-59600000D01*
X92510000Y-57800000D02*
X91100000Y-57800000D01*
X92660000Y-59450000D02*
X92660000Y-57950000D01*
X88740000Y-57950000D02*
G75*
G02*
X88890000Y-57800000I150000J0D01*
G01*
X88890000Y-59600000D02*
G75*
G02*
X88740000Y-59450000I0J150000D01*
G01*
X92510000Y-57800000D02*
G75*
G02*
X92660000Y-57950000I0J-150000D01*
G01*
X92660000Y-59450000D02*
G75*
G02*
X92510000Y-59600000I-150000J0D01*
G01*
D12*
X89730000Y-59330000D02*
G75*
G02*
X89670000Y-59330000I-30000J0D01*
G01*
X89670000Y-59330000D02*
G75*
G02*
X89730000Y-59330000I30000J0D01*
G01*
%TO.C,C15*%
D13*
X121592164Y-77440000D02*
X121807836Y-77440000D01*
X121592164Y-78160000D02*
X121807836Y-78160000D01*
%TO.C,R13*%
D11*
X92860000Y-77000000D02*
X92860000Y-78000000D01*
X92860000Y-78000000D02*
X93570000Y-78000000D01*
X93570000Y-77000000D02*
X92860000Y-77000000D01*
X94030000Y-77000000D02*
X94740000Y-77000000D01*
X94740000Y-77000000D02*
X94740000Y-78000000D01*
X94740000Y-78000000D02*
X94030000Y-78000000D01*
D12*
X94330000Y-77155000D02*
G75*
G02*
X94270000Y-77155000I-30000J0D01*
G01*
X94270000Y-77155000D02*
G75*
G02*
X94330000Y-77155000I30000J0D01*
G01*
%TO.C,R18*%
D13*
X119322500Y-59337742D02*
X119322500Y-59812258D01*
X118277500Y-59337742D02*
X118277500Y-59812258D01*
%TO.C,R12*%
X120195000Y-54788641D02*
X120195000Y-54481359D01*
X120955000Y-54788641D02*
X120955000Y-54481359D01*
%TD*%
M02*
