%TF.GenerationSoftware,KiCad,Pcbnew,10.0.2*%
%TF.CreationDate,2026-05-10T18:03:25+01:00*%
%TF.ProjectId,eink_badge,65696e6b-5f62-4616-9467-652e6b696361,rev?*%
%TF.SameCoordinates,Original*%
%TF.FileFunction,Paste,Top*%
%TF.FilePolarity,Positive*%
%FSLAX46Y46*%
G04 Gerber Fmt 4.6, Leading zero omitted, Abs format (unit mm)*
G04 Created by KiCad (PCBNEW 10.0.2) date 2026-05-10 18:03:25*
%MOMM*%
%LPD*%
G01*
G04 APERTURE LIST*
G04 Aperture macros list*
%AMRoundRect*
0 Rectangle with rounded corners*
0 $1 Rounding radius*
0 $2 $3 $4 $5 $6 $7 $8 $9 X,Y pos of 4 corners*
0 Add a 4 corners polygon primitive as box body*
4,1,4,$2,$3,$4,$5,$6,$7,$8,$9,$2,$3,0*
0 Add four circle primitives for the rounded corners*
1,1,$1+$1,$2,$3*
1,1,$1+$1,$4,$5*
1,1,$1+$1,$6,$7*
1,1,$1+$1,$8,$9*
0 Add four rect primitives between the rounded corners*
20,1,$1+$1,$2,$3,$4,$5,0*
20,1,$1+$1,$4,$5,$6,$7,0*
20,1,$1+$1,$6,$7,$8,$9,0*
20,1,$1+$1,$8,$9,$2,$3,0*%
%AMRotRect*
0 Rectangle, with rotation*
0 The origin of the aperture is its center*
0 $1 length*
0 $2 width*
0 $3 Rotation angle, in degrees counterclockwise*
0 Add horizontal line*
21,1,$1,$2,0,0,$3*%
%AMFreePoly0*
4,1,77,1.109140,0.885366,1.123785,0.850011,1.123785,0.750024,1.775003,0.750024,1.810358,0.735379,1.825003,0.700024,1.825003,0.500024,1.810358,0.464669,1.775003,0.450024,1.123785,0.450024,1.123785,0.350025,1.775003,0.350025,1.810358,0.335380,1.825003,0.300025,1.825003,0.100025,1.810358,0.064670,1.775003,0.050025,1.123785,0.050025,1.123785,-0.049974,1.775003,-0.049974,
1.810358,-0.064619,1.825003,-0.099974,1.825003,-0.299974,1.810358,-0.335329,1.775003,-0.349974,1.125004,-0.349974,1.125004,-0.449974,1.775003,-0.449974,1.810358,-0.464619,1.825003,-0.499974,1.825003,-0.699973,1.810358,-0.735328,1.775003,-0.749973,1.123785,-0.749973,1.123785,-0.849986,1.109140,-0.885341,1.073785,-0.899986,-1.076223,-0.899986,-1.111578,-0.885341,-1.126223,-0.849986,
-1.126223,-0.749973,-1.775003,-0.749973,-1.810358,-0.735328,-1.825003,-0.699973,-1.825003,-0.499974,-1.810358,-0.464619,-1.775003,-0.449974,-1.126223,-0.449974,-1.126223,-0.349974,-1.775003,-0.349974,-1.810358,-0.335329,-1.825003,-0.299974,-1.825003,-0.099974,-1.810358,-0.064619,-1.775003,-0.049974,-1.126223,-0.049974,-1.126223,0.050025,-1.775003,0.050025,-1.810358,0.064670,-1.825003,0.100025,
-1.825003,0.300025,-1.810358,0.335380,-1.775003,0.350025,-1.126223,0.350025,-1.126223,0.450024,-1.775003,0.450024,-1.810358,0.464669,-1.825003,0.500024,-1.825003,0.700024,-1.810358,0.735379,-1.775003,0.750024,-1.126223,0.750024,-1.126223,0.850011,-1.111578,0.885366,-1.076223,0.900011,1.073785,0.900011,1.109140,0.885366,1.109140,0.885366,$1*%
G04 Aperture macros list end*
%ADD10R,0.540000X0.500000*%
%ADD11RoundRect,0.375000X0.625000X0.375000X-0.625000X0.375000X-0.625000X-0.375000X0.625000X-0.375000X0*%
%ADD12RoundRect,0.500000X0.500000X1.400000X-0.500000X1.400000X-0.500000X-1.400000X0.500000X-1.400000X0*%
%ADD13RoundRect,0.250000X0.475000X-0.250000X0.475000X0.250000X-0.475000X0.250000X-0.475000X-0.250000X0*%
%ADD14RoundRect,0.250000X-0.262500X-0.450000X0.262500X-0.450000X0.262500X0.450000X-0.262500X0.450000X0*%
%ADD15R,1.410000X1.350000*%
%ADD16RoundRect,0.079500X-0.079500X-0.100500X0.079500X-0.100500X0.079500X0.100500X-0.079500X0.100500X0*%
%ADD17RoundRect,0.200000X0.275000X-0.200000X0.275000X0.200000X-0.275000X0.200000X-0.275000X-0.200000X0*%
%ADD18RoundRect,0.135000X-0.135000X-0.185000X0.135000X-0.185000X0.135000X0.185000X-0.135000X0.185000X0*%
%ADD19FreePoly0,180.000000*%
%ADD20R,0.280000X0.876000*%
%ADD21R,0.505000X0.224000*%
%ADD22R,0.900000X1.500000*%
%ADD23R,3.800000X1.200000*%
%ADD24R,0.800000X0.900000*%
%ADD25RoundRect,0.140000X0.170000X-0.140000X0.170000X0.140000X-0.170000X0.140000X-0.170000X-0.140000X0*%
%ADD26R,0.806000X0.864000*%
%ADD27R,1.350000X1.410000*%
%ADD28RoundRect,0.135000X-0.185000X0.135000X-0.185000X-0.135000X0.185000X-0.135000X0.185000X0.135000X0*%
%ADD29RotRect,1.050000X2.000000X225.000000*%
%ADD30RoundRect,0.162500X0.162500X-0.650000X0.162500X0.650000X-0.162500X0.650000X-0.162500X-0.650000X0*%
%ADD31RoundRect,0.140000X-0.170000X0.140000X-0.170000X-0.140000X0.170000X-0.140000X0.170000X0.140000X0*%
%ADD32RoundRect,0.135000X0.185000X-0.135000X0.185000X0.135000X-0.185000X0.135000X-0.185000X-0.135000X0*%
%ADD33RoundRect,0.140000X-0.140000X-0.170000X0.140000X-0.170000X0.140000X0.170000X-0.140000X0.170000X0*%
%ADD34R,1.200000X0.300000*%
%ADD35R,1.800000X2.000000*%
%ADD36R,1.520000X1.680000*%
%ADD37RoundRect,0.250000X-0.475000X0.250000X-0.475000X-0.250000X0.475000X-0.250000X0.475000X0.250000X0*%
%ADD38R,1.200000X1.400000*%
%ADD39RoundRect,0.227500X0.227500X-0.227500X0.227500X0.227500X-0.227500X0.227500X-0.227500X-0.227500X0*%
%ADD40RoundRect,0.050000X0.050000X-0.350000X0.050000X0.350000X-0.050000X0.350000X-0.050000X-0.350000X0*%
%ADD41RoundRect,0.050000X0.350000X-0.050000X0.350000X0.050000X-0.350000X0.050000X-0.350000X-0.050000X0*%
%ADD42R,1.600000X1.000000*%
%ADD43RoundRect,0.140000X0.140000X0.170000X-0.140000X0.170000X-0.140000X-0.170000X0.140000X-0.170000X0*%
%ADD44R,0.900000X0.800000*%
%ADD45RoundRect,0.140000X-0.021213X0.219203X-0.219203X0.021213X0.021213X-0.219203X0.219203X-0.021213X0*%
%ADD46R,4.500000X1.900000*%
%ADD47R,1.200000X2.200000*%
%ADD48R,1.240000X0.600000*%
%ADD49R,1.240000X0.300000*%
%ADD50R,0.566000X0.540000*%
%ADD51R,0.650000X1.000000*%
%ADD52R,1.550000X0.600000*%
%ADD53R,2.000000X1.500000*%
%ADD54RoundRect,0.200000X-0.275000X0.200000X-0.275000X-0.200000X0.275000X-0.200000X0.275000X0.200000X0*%
G04 APERTURE END LIST*
D10*
%TO.C,C37*%
X118475000Y-64365000D03*
X118475000Y-63525000D03*
%TD*%
D11*
%TO.C,U2*%
X106350000Y-63500000D03*
D12*
X100050000Y-65800000D03*
D11*
X106350000Y-65800000D03*
X106350000Y-68100000D03*
%TD*%
D13*
%TO.C,C4*%
X106625000Y-70300000D03*
X106625000Y-72200000D03*
%TD*%
D14*
%TO.C,R21*%
X122312500Y-57500000D03*
X120487500Y-57500000D03*
%TD*%
D15*
%TO.C,C35*%
X116750000Y-63125000D03*
X114750000Y-63125000D03*
%TD*%
D16*
%TO.C,R20*%
X123835000Y-59650000D03*
X124525000Y-59650000D03*
%TD*%
D14*
%TO.C,R19*%
X120500000Y-59525000D03*
X122325000Y-59525000D03*
%TD*%
D17*
%TO.C,R17*%
X116100000Y-53950000D03*
X116100000Y-52300000D03*
%TD*%
D18*
%TO.C,R8*%
X121590000Y-55800000D03*
X122610000Y-55800000D03*
%TD*%
D19*
%TO.C,U10*%
X121050000Y-62775000D03*
D20*
X122050000Y-64275000D03*
X121550000Y-64275000D03*
X121050000Y-64245000D03*
X120550000Y-64245000D03*
X120050000Y-64245000D03*
X120050000Y-61275000D03*
X120550000Y-61275000D03*
X121050000Y-61275000D03*
X121550000Y-61275000D03*
X122050000Y-61275000D03*
%TD*%
D21*
%TO.C,U9*%
X119656250Y-56100000D03*
X119656250Y-55700000D03*
X119656250Y-55300000D03*
X119656250Y-54900000D03*
X119656250Y-54500000D03*
X117796250Y-56100000D03*
X117796250Y-55700000D03*
X117796250Y-55300000D03*
X117796250Y-54900000D03*
X117796250Y-54500000D03*
D22*
X118726250Y-55300000D03*
%TD*%
D23*
%TO.C,L2*%
X125425000Y-61735000D03*
X125425000Y-64115000D03*
%TD*%
D24*
%TO.C,C38*%
X119350000Y-65925000D03*
X117950000Y-65925000D03*
%TD*%
D15*
%TO.C,C36*%
X124225000Y-58275000D03*
X126225000Y-58275000D03*
%TD*%
%TO.C,C30*%
X115000000Y-59125000D03*
X117000000Y-59125000D03*
%TD*%
%TO.C,C28*%
X124150000Y-56250000D03*
X126150000Y-56250000D03*
%TD*%
%TO.C,C24*%
X114975000Y-61150000D03*
X116975000Y-61150000D03*
%TD*%
%TO.C,C23*%
X119950000Y-52725000D03*
X117950000Y-52725000D03*
%TD*%
D25*
%TO.C,C11*%
X116650000Y-67610000D03*
X116650000Y-66650000D03*
%TD*%
D18*
%TO.C,R4*%
X108680000Y-75625000D03*
X109700000Y-75625000D03*
%TD*%
D26*
%TO.C,R16*%
X103550000Y-58400000D03*
X105050000Y-58400000D03*
%TD*%
D27*
%TO.C,C19*%
X94700000Y-58000000D03*
X94700000Y-56000000D03*
%TD*%
D28*
%TO.C,R2*%
X92900000Y-87465000D03*
X92900000Y-88485000D03*
%TD*%
D29*
%TO.C,U5*%
X114817498Y-86477532D03*
X111932502Y-89362528D03*
%TD*%
D30*
%TO.C,U4*%
X106095000Y-87587500D03*
X107365000Y-87587500D03*
X108635000Y-87587500D03*
X109905000Y-87587500D03*
X109905000Y-80412500D03*
X108635000Y-80412500D03*
X107365000Y-80412500D03*
X106095000Y-80412500D03*
%TD*%
D24*
%TO.C,C34*%
X98250000Y-71450000D03*
X96850000Y-71450000D03*
%TD*%
D25*
%TO.C,C8*%
X115725000Y-67600000D03*
X115725000Y-66640000D03*
%TD*%
D15*
%TO.C,C22*%
X95900000Y-74800000D03*
X97900000Y-74800000D03*
%TD*%
D31*
%TO.C,C16*%
X104225000Y-87220000D03*
X104225000Y-88180000D03*
%TD*%
D18*
%TO.C,R5*%
X108680000Y-76625000D03*
X109700000Y-76625000D03*
%TD*%
D25*
%TO.C,C1*%
X111635000Y-73885000D03*
X111635000Y-72925000D03*
%TD*%
%TO.C,C17*%
X122450000Y-73105000D03*
X122450000Y-72145000D03*
%TD*%
D26*
%TO.C,R10*%
X103550000Y-60050000D03*
X105050000Y-60050000D03*
%TD*%
D15*
%TO.C,C26*%
X97550000Y-66200000D03*
X95550000Y-66200000D03*
%TD*%
D25*
%TO.C,C13*%
X120425000Y-70175000D03*
X120425000Y-69215000D03*
%TD*%
D32*
%TO.C,R7*%
X107200000Y-90335000D03*
X107200000Y-89315000D03*
%TD*%
D33*
%TO.C,C3*%
X111120000Y-71325000D03*
X112080000Y-71325000D03*
%TD*%
D15*
%TO.C,C29*%
X95950000Y-76800000D03*
X97950000Y-76800000D03*
%TD*%
D28*
%TO.C,R9*%
X105050000Y-89305000D03*
X105050000Y-90325000D03*
%TD*%
D24*
%TO.C,C32*%
X97900000Y-68050000D03*
X96500000Y-68050000D03*
%TD*%
D34*
%TO.C,FPC1*%
X91995000Y-77250000D03*
X91995000Y-76750000D03*
X91995000Y-76250000D03*
X91995000Y-75750000D03*
X91995000Y-75250000D03*
X91995000Y-74750000D03*
X91995000Y-74250000D03*
X91995000Y-73750000D03*
X91995000Y-73250000D03*
X91995000Y-72750000D03*
X91995000Y-72250000D03*
X91995000Y-71750000D03*
X91995000Y-71250000D03*
X91995000Y-70750000D03*
X91995000Y-70250000D03*
X91995000Y-69750000D03*
X91995000Y-69250000D03*
X91995000Y-68750000D03*
X91995000Y-68250000D03*
X91995000Y-67750000D03*
X91995000Y-67250000D03*
X91995000Y-66750000D03*
X91995000Y-66250000D03*
X91995000Y-65750000D03*
D35*
X88755000Y-64200000D03*
X88755000Y-78800000D03*
%TD*%
D36*
%TO.C,D6*%
X96990000Y-60400000D03*
X100910000Y-60400000D03*
%TD*%
D31*
%TO.C,C10*%
X113575000Y-82040000D03*
X113575000Y-83000000D03*
%TD*%
D36*
%TO.C,D4*%
X100810000Y-57300000D03*
X96890000Y-57300000D03*
%TD*%
D37*
%TO.C,C5*%
X106675000Y-74075000D03*
X106675000Y-75975000D03*
%TD*%
D27*
%TO.C,C21*%
X95100000Y-62150000D03*
X95100000Y-60150000D03*
%TD*%
D38*
%TO.C,U6*%
X125550000Y-74850000D03*
X125550000Y-72650000D03*
X123850000Y-72650000D03*
X123850000Y-74850000D03*
%TD*%
D15*
%TO.C,C27*%
X89700000Y-56500000D03*
X91700000Y-56500000D03*
%TD*%
D26*
%TO.C,R11*%
X96150000Y-73050000D03*
X97650000Y-73050000D03*
%TD*%
D39*
%TO.C,U1*%
X115270000Y-76505000D03*
X116400000Y-76505000D03*
X117530000Y-76505000D03*
X115270000Y-75375000D03*
X116400000Y-75375000D03*
X117530000Y-75375000D03*
X115270000Y-74245000D03*
X116400000Y-74245000D03*
X117530000Y-74245000D03*
D40*
X113600000Y-78825000D03*
X114000000Y-78825000D03*
X114400000Y-78825000D03*
X114800000Y-78825000D03*
X115200000Y-78825000D03*
X115600000Y-78825000D03*
X116000000Y-78825000D03*
X116400000Y-78825000D03*
X116800000Y-78825000D03*
X117200000Y-78825000D03*
X117600000Y-78825000D03*
X118000000Y-78825000D03*
X118400000Y-78825000D03*
X118800000Y-78825000D03*
X119200000Y-78825000D03*
D41*
X119850000Y-78175000D03*
X119850000Y-77775000D03*
X119850000Y-77375000D03*
X119850000Y-76975000D03*
X119850000Y-76575000D03*
X119850000Y-76175000D03*
X119850000Y-75775000D03*
X119850000Y-75375000D03*
X119850000Y-74975000D03*
X119850000Y-74575000D03*
X119850000Y-74175000D03*
X119850000Y-73775000D03*
X119850000Y-73375000D03*
X119850000Y-72975000D03*
X119850000Y-72575000D03*
D40*
X119200000Y-71925000D03*
X118800000Y-71925000D03*
X118400000Y-71925000D03*
X118000000Y-71925000D03*
X117600000Y-71925000D03*
X117200000Y-71925000D03*
X116800000Y-71925000D03*
X116400000Y-71925000D03*
X116000000Y-71925000D03*
X115600000Y-71925000D03*
X115200000Y-71925000D03*
X114800000Y-71925000D03*
X114400000Y-71925000D03*
X114000000Y-71925000D03*
X113600000Y-71925000D03*
D41*
X112950000Y-72575000D03*
X112950000Y-72975000D03*
X112950000Y-73375000D03*
X112950000Y-73775000D03*
X112950000Y-74175000D03*
X112950000Y-74575000D03*
X112950000Y-74975000D03*
X112950000Y-75375000D03*
X112950000Y-75775000D03*
X112950000Y-76175000D03*
X112950000Y-76575000D03*
X112950000Y-76975000D03*
X112950000Y-77375000D03*
X112950000Y-77775000D03*
X112950000Y-78175000D03*
%TD*%
D42*
%TO.C,L1*%
X109125000Y-74475000D03*
X109125000Y-72475000D03*
%TD*%
D43*
%TO.C,C9*%
X109660000Y-77625000D03*
X108700000Y-77625000D03*
%TD*%
D24*
%TO.C,C33*%
X98350000Y-69750000D03*
X96950000Y-69750000D03*
%TD*%
D44*
%TO.C,C31*%
X93300000Y-63600000D03*
X93300000Y-65000000D03*
%TD*%
D26*
%TO.C,R15*%
X103550000Y-56850000D03*
X105050000Y-56850000D03*
%TD*%
D32*
%TO.C,R6*%
X106125000Y-90320000D03*
X106125000Y-89300000D03*
%TD*%
D45*
%TO.C,C6*%
X116539411Y-82710589D03*
X115860589Y-83389411D03*
%TD*%
D25*
%TO.C,C14*%
X112975000Y-69705000D03*
X112975000Y-68745000D03*
%TD*%
D46*
%TO.C,U8*%
X101750000Y-75350000D03*
X101750000Y-78450000D03*
%TD*%
D25*
%TO.C,C2*%
X110715000Y-73885000D03*
X110715000Y-72925000D03*
%TD*%
D47*
%TO.C,SW1*%
X108025000Y-57437500D03*
X110525000Y-57437500D03*
X113025000Y-57437500D03*
%TD*%
D31*
%TO.C,C12*%
X118600000Y-80320000D03*
X118600000Y-81280000D03*
%TD*%
D18*
%TO.C,R1*%
X109240000Y-71325000D03*
X110260000Y-71325000D03*
%TD*%
D32*
%TO.C,R3*%
X92750000Y-83710000D03*
X92750000Y-82690000D03*
%TD*%
D33*
%TO.C,C7*%
X121345000Y-74175000D03*
X122305000Y-74175000D03*
%TD*%
D48*
%TO.C,U3*%
X91467500Y-82300000D03*
X91467500Y-83100000D03*
D49*
X91467500Y-84250000D03*
X91467500Y-85250000D03*
X91467500Y-85750000D03*
X91467500Y-86750000D03*
D48*
X91467500Y-88700000D03*
X91467500Y-87900000D03*
D49*
X91467500Y-87250000D03*
X91467500Y-86250000D03*
X91467500Y-84750000D03*
X91467500Y-83750000D03*
%TD*%
D50*
%TO.C,R14*%
X93300000Y-74450000D03*
X94160000Y-74450000D03*
%TD*%
D51*
%TO.C,Q1*%
X94700000Y-80350000D03*
X96600000Y-80350000D03*
X95650000Y-78350000D03*
%TD*%
D31*
%TO.C,C18*%
X127125000Y-72895000D03*
X127125000Y-73855000D03*
%TD*%
D52*
%TO.C,U7*%
X121885000Y-69450000D03*
X121885000Y-68450000D03*
X121885000Y-67450000D03*
D53*
X125765000Y-66150000D03*
X125765000Y-70750000D03*
%TD*%
D36*
%TO.C,D5*%
X88790000Y-61250000D03*
X92710000Y-61250000D03*
%TD*%
D15*
%TO.C,C20*%
X97550000Y-64200000D03*
X95550000Y-64200000D03*
%TD*%
%TO.C,C25*%
X89700000Y-58700000D03*
X91700000Y-58700000D03*
%TD*%
D33*
%TO.C,C15*%
X121220000Y-77800000D03*
X122180000Y-77800000D03*
%TD*%
D50*
%TO.C,R13*%
X94230000Y-77500000D03*
X93370000Y-77500000D03*
%TD*%
D54*
%TO.C,R18*%
X118800000Y-58750000D03*
X118800000Y-60400000D03*
%TD*%
D32*
%TO.C,R12*%
X120575000Y-55145000D03*
X120575000Y-54125000D03*
%TD*%
M02*
